<svg width="55" height="69" viewBox="0 0 55 69" fill="none" xmlns="http://www.w3.org/2000/svg">
<path d="M29.2327 12.6832L24.19 12.9754C14.9783 13.6878 7.14734 19.3455 3.22329 27.2018C2.28267 29.0831 4.51179 31.0145 6.22325 29.7955C10.5479 26.7176 15.7854 25.0088 21.3203 25.0088H29.1207C30.2533 25.0088 31.1717 25.9272 31.1717 27.0598V29.6535C31.1717 31.2982 33.0084 32.2695 34.3693 31.3483L50.3127 20.5479C51.5093 19.7353 51.5093 17.9681 50.3127 17.1555L34.3693 6.35514C33.0084 5.43675 31.1717 6.40523 31.1717 8.04993V10.6436C31.1717 11.7261 30.3229 12.625 29.2404 12.689L29.2327 12.6832Z" fill="white"/>
<path d="M25.843 56.2964L30.8856 56.0042C40.0973 55.2917 47.9283 49.6341 51.8524 41.7777C52.793 39.8965 50.5639 37.9651 48.8524 39.184C44.5277 42.2619 39.2902 43.9707 33.7553 43.9707H25.955C24.8224 43.9707 23.904 43.0523 23.904 41.9197V39.326C23.904 37.6813 22.0673 36.7101 20.7064 37.6312L4.76298 48.4316C3.56631 49.2442 3.56631 51.0114 4.76298 51.824L20.7064 62.6244C22.0673 63.5428 23.904 62.5743 23.904 60.9296V58.3359C23.904 57.2534 24.7528 56.3545 25.8353 56.2905L25.843 56.2964Z" fill="white"/>
</svg>
