<svg width="50" height="69" viewBox="0 0 50 69" fill="none" xmlns="http://www.w3.org/2000/svg">
<path d="M46.6748 26.1341C46.2322 25.338 45.4008 24.8456 44.4995 24.8456H29.4997V5.5199C29.4997 4.55778 29.4997 2 26.9997 2C26.1225 2 25.3072 2.4686 24.8558 3.2324L2.35607 41.3093C1.89235 42.0935 1.88119 43.071 2.32482 43.8671C2.76901 44.6626 3.5988 45.1539 4.50008 45.1539H19.4999V65.4616C19.4999 66.6027 20.2499 67.604 21.3324 67.9088C21.5551 67.9705 21.7788 68 21.9998 68C22.8609 68 23.6834 67.5467 24.1438 66.7676L46.6435 28.6907C47.1072 27.9065 47.1195 26.9295 46.6748 26.1341Z" fill="white"/>
</svg>
