<svg width="48" height="52" viewBox="0 0 48 52" fill="none" xmlns="http://www.w3.org/2000/svg">
<path fill-rule="evenodd" clip-rule="evenodd" d="M14.3061 40.6536C13.3235 41.5382 10.7105 42.4303 6.98298 42.4303C4.04618 42.4303 1.35706 41.8415 0 40.9159V34.0687C1.6658 34.896 4.20316 35.3877 6.98298 35.3877C9.98607 35.3877 12.6653 34.8221 14.309 33.8896V40.6536H14.3061ZM0.00290722 42.3898V50.7792C2.27348 51.4294 4.62298 51.7674 6.98589 51.7839C9.46697 51.7632 11.9329 51.3974 14.3119 50.6971V42.2107C12.6711 43.1432 9.99188 43.7089 6.9888 43.7089C4.20898 43.7089 1.67161 43.2172 0.00581444 42.3898H0.00290722ZM48 2.48849C47.9989 1.82783 47.7339 1.19462 47.2633 0.728004C46.7926 0.261388 46.1548 -0.000459694 45.49 6.05843e-07H25.8469C18.7372 3.51405 19.3349 6.99862 19.8582 10.0753C20.1218 11.1018 20.165 12.1719 19.9849 13.2161C19.8581 13.7018 19.5933 14.1409 19.2221 14.4812C18.851 14.8214 18.3892 15.0483 17.8918 15.1349C16.5392 15.3409 15.1732 15.4479 13.8049 15.455C9.66279 15.5798 6.05676 15.6861 4.70494 20.6116C5.46026 20.5347 6.21905 20.4961 6.97833 20.4961C10.8274 20.4961 14.1392 21.4252 15.4254 22.865C15.5306 22.9818 15.5885 23.1334 15.5876 23.2902V51.1697C15.5878 51.3052 15.5447 51.4372 15.4645 51.5467C15.3844 51.6563 15.2713 51.7377 15.1416 51.7793C14.9242 51.848 14.6765 51.9226 14.3974 52H45.49C46.1541 51.9995 46.7911 51.7374 47.261 51.271C47.731 50.8046 47.9957 50.1721 47.9971 49.5121V2.48849H48ZM22.8938 0.201067C17.4702 3.75556 18.1087 7.48107 18.5947 10.2908C18.8149 11.1395 18.8647 12.023 18.7413 12.8908C18.6797 13.143 18.5442 13.3714 18.3519 13.547C18.1595 13.7226 17.9191 13.8375 17.661 13.8771C16.3714 14.0705 15.0695 14.1708 13.7654 14.1769C10.5553 14.2728 7.02542 14.3797 4.8782 17.2524C5.7134 12.8968 7.89988 8.91033 11.1309 5.85227C14.3619 2.79421 18.4752 0.818059 22.8938 0.201067ZM0 23.2908C1.35706 22.3664 4.04618 21.7764 6.98298 21.7764C10.7105 21.7764 13.3206 22.6691 14.309 23.5525V25.0426C13.3206 25.926 10.7134 26.8181 6.98589 26.8181C4.04908 26.8181 1.35997 26.2305 0.00290722 25.3044V23.2908H0ZM6.98298 28.0973C4.20839 28.0973 1.6658 27.6062 0 26.7783V32.5948C1.35706 33.5192 4.04618 34.1091 6.98298 34.1091C10.7105 34.1091 13.3235 33.2159 14.309 32.3319V26.5992C12.6653 27.5311 9.98607 28.0973 6.98298 28.0973ZM42.3758 4.36396C42.5431 4.36895 42.7018 4.4385 42.8184 4.55785C42.9349 4.6772 43.0001 4.83696 43.0001 5.00327C43.0001 5.16957 42.9349 5.32934 42.8184 5.44869C42.7018 5.56803 42.5431 5.63758 42.3758 5.64258H24.8341C24.6668 5.63758 24.508 5.56803 24.3915 5.44869C24.2749 5.32934 24.2098 5.16957 24.2098 5.00327C24.2098 4.83696 24.2749 4.6772 24.3915 4.55785C24.508 4.4385 24.6668 4.36895 24.8341 4.36396H42.3758ZM43.0189 10.233C43.0189 10.4025 42.9511 10.565 42.8305 10.6849C42.7099 10.8047 42.5464 10.872 42.3758 10.872H24.8341C24.6668 10.867 24.508 10.7975 24.3915 10.6782C24.2749 10.5588 24.2098 10.399 24.2098 10.2327C24.2098 10.0664 24.2749 9.90667 24.3915 9.78732C24.508 9.66797 24.6668 9.59842 24.8341 9.59342H42.3758C42.5464 9.59358 42.71 9.66103 42.8306 9.78096C42.9512 9.90089 43.0189 10.0635 43.0189 10.233ZM43.0189 15.4631C43.0189 15.6325 42.9511 15.7951 42.8305 15.9149C42.7099 16.0348 42.5464 16.1021 42.3758 16.1021H24.8341C24.6668 16.0971 24.508 16.0275 24.3915 15.9082C24.2749 15.7888 24.2098 15.6291 24.2098 15.4628C24.2098 15.2965 24.2749 15.1367 24.3915 15.0174C24.508 14.898 24.6668 14.8285 24.8341 14.8235H42.3758C42.5464 14.8236 42.71 14.8911 42.8306 15.011C42.9512 15.1309 43.0189 15.2935 43.0189 15.4631ZM43.0189 20.6925C43.0189 20.862 42.9511 21.0246 42.8305 21.1444C42.7099 21.2642 42.5464 21.3316 42.3758 21.3316H24.8341C24.6668 21.3266 24.508 21.257 24.3915 21.1377C24.2749 21.0183 24.2098 20.8585 24.2098 20.6922C24.2098 20.5259 24.2749 20.3662 24.3915 20.2468C24.508 20.1275 24.6668 20.0579 24.8341 20.0529H42.3758C42.5464 20.0531 42.71 20.1205 42.8306 20.2405C42.9512 20.3604 43.0189 20.523 43.0189 20.6925ZM43.0189 25.9214C43.0189 26.091 42.9512 26.2536 42.8306 26.3735C42.71 26.4934 42.5464 26.5609 42.3758 26.561H24.8341C24.6668 26.556 24.508 26.4865 24.3915 26.3671C24.2749 26.2478 24.2098 26.088 24.2098 25.9217C24.2098 25.7554 24.2749 25.5956 24.3915 25.4763C24.508 25.3569 24.6668 25.2874 24.8341 25.2824H42.3758C42.5464 25.2824 42.7099 25.3497 42.8305 25.4696C42.9511 25.5894 43.0189 25.7519 43.0189 25.9214ZM43.0189 31.1509C43.019 31.2349 43.0024 31.318 42.9701 31.3956C42.9378 31.4732 42.8905 31.5437 42.8307 31.6031C42.771 31.6625 42.7001 31.7096 42.622 31.7418C42.544 31.7739 42.4603 31.7905 42.3758 31.7905H24.8341C24.6668 31.7855 24.508 31.7159 24.3915 31.5966C24.2749 31.4772 24.2098 31.3175 24.2098 31.1512C24.2098 30.9849 24.2749 30.8251 24.3915 30.7058C24.508 30.5864 24.6668 30.5169 24.8341 30.5119H42.3758C42.5463 30.512 42.7098 30.5794 42.8304 30.6992C42.9509 30.819 43.0187 30.9815 43.0189 31.1509ZM43.0189 36.3809C43.0189 36.5505 42.9512 36.7131 42.8306 36.833C42.71 36.9529 42.5464 37.0204 42.3758 37.0205H24.8341C24.6668 37.0155 24.508 36.946 24.3915 36.8266C24.2749 36.7073 24.2098 36.5475 24.2098 36.3812C24.2098 36.2149 24.2749 36.0552 24.3915 35.9358C24.508 35.8165 24.6668 35.7469 24.8341 35.7419H42.3758C42.5464 35.7419 42.7099 35.8092 42.8305 35.9291C42.9511 36.0489 43.0189 36.2115 43.0189 36.3809ZM43.0189 41.611C43.0187 41.7804 42.9509 41.9429 42.8304 42.0627C42.7098 42.1825 42.5463 42.2498 42.3758 42.25H24.8341C24.6668 42.245 24.508 42.1755 24.3915 42.0561C24.2749 41.9368 24.2098 41.777 24.2098 41.6107C24.2098 41.4444 24.2749 41.2846 24.3915 41.1653C24.508 41.0459 24.6668 40.9764 24.8341 40.9714H42.3758C42.5464 40.9715 42.71 41.039 42.8306 41.1589C42.9512 41.2789 43.0189 41.4414 43.0189 41.611ZM43.0189 46.841C43.0186 47.0104 42.9507 47.1728 42.8302 47.2925C42.7097 47.4123 42.5463 47.4797 42.3758 47.48H24.8341C24.6668 47.475 24.508 47.4055 24.3915 47.2862C24.2749 47.1668 24.2098 47.007 24.2098 46.8407C24.2098 46.6744 24.2749 46.5147 24.3915 46.3953C24.508 46.276 24.6668 46.2064 24.8341 46.2014H42.3758C42.4603 46.2014 42.544 46.218 42.622 46.2501C42.7001 46.2823 42.771 46.3294 42.8307 46.3888C42.8905 46.4482 42.9378 46.5187 42.9701 46.5963C43.0024 46.6739 43.019 46.7571 43.0189 46.841Z" fill="white"/>
</svg>
