<svg width="45" height="45" viewBox="0 0 45 45" fill="none" xmlns="http://www.w3.org/2000/svg">
<path d="M37.6406 25.8058L36.5861 25.452H36.5883C36.4835 25.4173 36.4114 25.3261 36.4027 25.2176C36.3961 25.109 36.4551 25.007 36.5533 24.9592L37.5489 24.4665V24.4687C38.1035 24.1799 38.3283 23.507 38.0598 22.9448L37.3895 21.6185L37.3917 21.6206C37.2629 21.345 37.0227 21.1344 36.7323 21.041C36.4463 20.9477 36.1319 20.9672 35.859 21.0996L34.8634 21.5967C34.7673 21.6445 34.6495 21.6293 34.5687 21.5577C34.4879 21.4882 34.4573 21.3753 34.4922 21.2733L34.8416 20.2248C35.0272 19.6322 34.7084 18.9984 34.1189 18.79L32.7106 18.3211C32.108 18.1149 31.4509 18.4297 31.2369 19.0266L30.8876 20.0751C30.8504 20.1771 30.7587 20.2487 30.6496 20.2596C30.5404 20.2682 30.4378 20.2075 30.3919 20.1098L29.892 19.12C29.7566 18.8486 29.5208 18.6402 29.2348 18.5404C28.9466 18.4427 28.63 18.4644 28.3614 18.6033L27.0274 19.2632C26.475 19.5541 26.2523 20.227 26.5209 20.7871L27.0165 21.7769C27.0689 21.8724 27.0558 21.9896 26.9859 22.0721C26.9139 22.1546 26.7982 22.185 26.6955 22.1459L25.6366 21.7986C25.3484 21.7053 25.034 21.7248 24.7633 21.8572C24.4882 21.9918 24.2808 22.2306 24.1803 22.5171L23.7087 23.9172C23.6083 24.2125 23.6323 24.5359 23.7742 24.8138C23.9161 25.0916 24.165 25.3022 24.4664 25.3934L25.5253 25.7472C25.6279 25.7798 25.6999 25.8709 25.7065 25.9795C25.7174 26.0858 25.6584 26.1879 25.5602 26.2334L24.5646 26.7305C24.2917 26.8651 24.0843 27.0996 23.9882 27.3861C23.8922 27.6727 23.9162 27.9852 24.0516 28.2544L24.7153 29.5807V29.5786C25.0079 30.1278 25.6847 30.3513 26.248 30.0822L27.2502 29.5894L27.248 29.5916C27.3441 29.5417 27.4598 29.5547 27.5406 29.6263C27.6213 29.6958 27.6541 29.8065 27.6213 29.9085L27.2655 30.9613V30.9635C27.1738 31.25 27.1956 31.5604 27.331 31.8318C27.462 32.1053 27.6978 32.3137 27.9882 32.4092L29.4029 32.8781C29.5165 32.9172 29.6366 32.9367 29.7588 32.9367C30.2501 32.9324 30.6845 32.6219 30.8461 32.1618L31.1955 31.109V31.1068C31.2304 31.0069 31.3221 30.9353 31.4291 30.9288C31.5382 30.9179 31.6409 30.9766 31.6911 31.0721L32.1911 32.0619C32.3242 32.3354 32.5601 32.5438 32.8504 32.6415C33.1386 32.7348 33.4509 32.711 33.7238 32.5785L35.0513 31.9186C35.6058 31.6299 35.8307 30.957 35.5622 30.3948L35.0622 29.4049C35.0163 29.3094 35.0316 29.1944 35.1037 29.1119C35.1735 29.0316 35.2849 28.999 35.3875 29.0294L36.4464 29.3832H36.4486C37.0424 29.5634 37.6756 29.2487 37.8852 28.6647L38.3568 27.2581C38.5555 26.6611 38.2366 26.0164 37.6406 25.8058ZM31.0558 28.6994C29.796 28.7081 28.6519 27.9614 28.1628 26.8043C27.6738 25.6495 27.9336 24.3145 28.82 23.4223C29.7086 22.5323 31.0492 22.261 32.2151 22.7385C33.3832 23.2139 34.1452 24.3427 34.1474 25.5974C34.1452 27.2992 32.7631 28.6798 31.0514 28.6929L31.0558 28.6994ZM33.3024 25.6018H33.3046C33.3068 26.507 32.761 27.3232 31.9204 27.6705C31.082 28.0178 30.1125 27.829 29.4685 27.1908C28.8244 26.5526 28.6322 25.5909 28.9794 24.7552C29.3265 23.9195 30.1475 23.3746 31.0557 23.3746C32.2915 23.3768 33.2915 24.3688 33.298 25.5974L33.3024 25.6018ZM8.99541 29.2096V40.0803C8.99541 41.068 8.18976 41.8691 7.19631 41.8691H1.7991C0.805707 41.8691 0 41.0681 0 40.0803V29.2096C0 28.2219 0.805651 27.4208 1.7991 27.4208H7.19631C7.67446 27.4208 8.13079 27.6075 8.46917 27.944C8.80755 28.2804 8.99541 28.7342 8.99541 29.2096ZM16.8334 4.23095H41.6647C43.0096 4.23095 44.0991 5.31414 44.0991 6.65135V11.733L34.3222 12.8553C34.165 11.6332 33.1192 10.7149 31.8769 10.7149H25.6017C24.3877 10.7193 23.355 11.5962 23.1607 12.7858L17.0996 12.0804C18.2044 9.55793 18.1063 6.67302 16.8334 4.23095ZM44.0988 12.6077V24.5144C44.0988 25.8515 43.0094 26.9348 41.6644 26.9348H39.2824C39.3064 26.162 38.8806 25.4456 38.1885 25.094C39.0073 24.5253 39.2824 23.4442 38.8348 22.5585L38.1645 21.2322C37.9287 20.7547 37.5095 20.3922 37.0008 20.225C36.7956 20.1599 36.5816 20.1273 36.3655 20.1273C36.1515 20.1251 35.9397 20.1577 35.7367 20.225C35.9113 19.246 35.3393 18.2909 34.3917 17.9739L32.9835 17.5094C32.7783 17.4399 32.5643 17.4052 32.3482 17.4052C31.5883 17.4009 30.8919 17.8263 30.5491 18.4993C30.3023 18.1498 29.9465 17.8871 29.536 17.7525C29.3351 17.6852 29.1211 17.6505 28.9072 17.6483C28.595 17.6483 28.2849 17.72 28.0055 17.8567L26.6714 18.5231C25.7762 18.966 25.3418 19.9905 25.6475 20.937C25.5317 20.9262 25.4138 20.9262 25.2981 20.937C24.9859 20.937 24.6759 21.0086 24.3964 21.1454C23.9182 21.382 23.5536 21.7988 23.3877 22.3024L22.9161 23.6569C22.6039 24.599 23.0296 25.628 23.9183 26.0773C23.617 26.2857 23.3812 26.5744 23.237 26.9109H15.9295C14.5868 26.9109 13.4972 25.8277 13.4972 24.4905V16.2243C14.8203 15.4016 15.9164 14.262 16.6805 12.9074L23.143 13.6607C23.2958 14.8937 24.346 15.8205 25.5948 15.8249H31.8762C33.0988 15.8227 34.1359 14.9327 34.3172 13.7301L44.0988 12.6077ZM31.8721 11.5831C32.7585 11.5831 33.4791 12.2973 33.4791 13.1808V13.3609V13.3588C33.4812 13.7842 33.3153 14.1945 33.014 14.4963C32.7149 14.8002 32.3044 14.9716 31.8765 14.9738H25.6013C24.7149 14.9716 23.9965 14.2575 23.9943 13.3762V13.1808C23.9943 12.2973 24.7127 11.5831 25.6013 11.5831L31.8721 11.5831ZM8.62372 0.114921C6.40323 0.114921 4.2767 0.991886 2.70682 2.55049C1.13699 4.11125 0.257111 6.22773 0.257111 8.43323C0.257111 10.6387 1.13699 12.7552 2.70682 14.316C4.27665 15.8746 6.40323 16.7515 8.62372 16.7515C10.842 16.7515 12.9707 15.8746 14.5384 14.316C16.1082 12.7552 16.9903 10.6387 16.9903 8.43323C16.9881 6.22773 16.106 4.11347 14.5384 2.55271C12.9686 0.994109 10.842 0.117088 8.62372 0.114921ZM9.06039 12.5839V13.4348C9.06039 13.6736 8.86389 13.869 8.62372 13.869C8.38137 13.869 8.18705 13.6736 8.18705 13.4348V12.5904C7.28314 12.4841 6.49716 11.9284 6.10194 11.1144C6.0539 11.008 6.04954 10.8864 6.0932 10.7757C6.13469 10.6672 6.21983 10.5804 6.32901 10.5348C6.43599 10.4892 6.55826 10.487 6.66743 10.5304C6.77878 10.5738 6.86611 10.6585 6.91196 10.767C7.24164 11.3987 7.91413 11.7808 8.62806 11.7439C9.63024 11.7439 10.4446 11.0948 10.4446 10.3025C10.4446 9.51014 9.63024 8.86107 8.62806 8.86107C7.14342 8.86107 5.93818 7.82562 5.93818 6.54487V6.54704C6.01897 5.33793 6.97747 4.36977 8.19137 4.27208V3.42551C8.19137 3.18673 8.38787 2.99136 8.62803 2.99136C8.87038 2.99136 9.0647 3.18673 9.0647 3.42551V4.27641C9.98605 4.37409 10.7852 4.94932 11.1673 5.78728C11.2153 5.89581 11.2175 6.01955 11.1716 6.12808C11.1258 6.23662 11.0384 6.32345 10.9293 6.36686C10.8201 6.41245 10.6978 6.41462 10.5887 6.36903C10.4773 6.32345 10.3922 6.23879 10.3463 6.13025C10.021 5.47468 9.33325 5.07746 8.59964 5.12303C7.6215 5.13388 6.7831 5.75904 6.7831 6.55787C6.7831 7.3567 7.6215 8.02744 8.62368 8.02744C10.1083 8.02744 11.3136 9.0629 11.3136 10.3436C11.2153 11.5375 10.2612 12.4863 9.06039 12.5839ZM20.4945 3.36249C20.7675 1.43707 22.4224 0.00433454 24.3787 0H33.1121C35.0662 0.0043412 36.7233 1.43701 36.9941 3.36249H20.4945ZM43.2013 37.6431L26.9681 44.7351C26.5599 44.9087 26.121 44.9999 25.6756 44.9999C25.3918 45.0021 25.108 44.9652 24.8328 44.8914L9.75889 40.793C9.82876 40.5607 9.86587 40.322 9.86805 40.081V29.2102C9.86587 29.0843 9.85496 28.9584 9.83312 28.8325H17.2631C18.3111 28.8304 19.3307 29.1647 20.1734 29.7833L24.9179 34.3332L26.3152 35.59L26.3174 35.5878C26.2781 36.302 25.8589 36.9424 25.2192 37.268C24.5795 37.5936 23.8131 37.5545 23.2083 37.1681L16.8046 33.1153L16.8024 33.1175C16.6037 32.9981 16.3483 33.0567 16.2216 33.2499C16.1081 33.4475 16.167 33.6993 16.3548 33.8295L22.7585 37.8823V37.8801C23.9921 38.666 25.6209 38.4185 26.5619 37.3027C26.9462 36.8382 27.171 36.2651 27.2081 35.6638L41.2402 31.9996H41.2381C42.7577 31.6153 44.3188 32.4489 44.8319 33.9207C45.3471 35.3924 44.6419 37.0096 43.2118 37.6435L43.2013 37.6431Z" fill="white"/>
</svg>
