<svg width="55" height="69" viewBox="0 0 55 69" fill="none" xmlns="http://www.w3.org/2000/svg">
<path d="M49.8998 14.4853C42.6741 13.8974 35.9082 10.8272 30.7845 5.73187L29.4708 4.36006C28.9453 3.83747 28.2227 3.57617 27.5001 3.57617C26.7775 3.57617 26.055 3.83747 25.5295 4.36006L24.2157 5.73187C19.092 10.8272 12.3261 13.8974 5.10042 14.4853C3.65527 14.616 2.53857 15.7918 2.53857 17.2289V25.1331C2.53857 41.7255 11.6036 57.142 26.1207 65.3075C26.5148 65.5688 27.0403 65.6341 27.5001 65.6341C27.9599 65.6341 28.4197 65.5035 28.8796 65.3075C43.3967 57.142 52.4617 41.7255 52.4617 25.1331V17.2289C52.4617 15.7918 51.3449 14.616 49.8998 14.4853ZM39.5211 29.3139L27.2374 42.5747C26.7119 43.0973 25.9893 43.4239 25.2667 43.4892H25.201C24.4785 43.4892 23.7559 43.2279 23.2304 42.7053L16.3331 35.7156C15.2821 34.6705 15.2821 32.9067 16.3331 31.8615C17.3841 30.8163 19.1577 30.8163 20.2087 31.8615L25.1353 36.7608L35.4484 25.5904C36.4994 24.4799 38.2073 24.4146 39.324 25.3944C40.4407 26.4396 40.5064 28.2034 39.5211 29.3139Z" fill="white"/>
</svg>
