<svg width="52" height="57" viewBox="0 0 52 57" fill="none" xmlns="http://www.w3.org/2000/svg">
<path fill-rule="evenodd" clip-rule="evenodd" d="M35.024 3.48074C32.9361 1.53619 30.189 0.326257 27.2509 0.0570864C24.3128 -0.212084 21.3653 0.476164 18.9108 2.00456C16.4563 3.53296 14.6466 5.80695 13.79 8.43906C12.9334 11.0712 13.0829 13.8986 14.2131 16.4395C15.3433 18.9804 17.3842 21.0777 19.988 22.3739C22.5919 23.6701 25.5977 24.0851 28.4932 23.5482C31.3887 23.0113 33.9948 21.5556 35.8674 19.4293C37.74 17.303 38.7634 14.6375 38.763 11.8871C38.765 10.3255 38.4358 8.7789 37.7941 7.33624C37.1524 5.89359 36.211 4.58331 35.024 3.48074ZM38.3055 56.5548C42.396 56.2565 46.3315 55.8144 50.0712 55.2437C50.6124 55.1655 51.1053 54.9082 51.4595 54.519C51.8137 54.1299 52.0055 53.6348 51.9999 53.1246V50.6273C51.9782 44.2091 49.2322 38.0595 44.3613 33.5206C39.4903 28.9818 32.8899 26.4223 26.0007 26.4007V26.4077C19.1119 26.4272 12.5113 28.9851 7.63986 33.5229C2.76845 38.0606 0.0219797 44.2096 0.000104277 50.6273V53.1265C-0.00513025 53.6366 0.186863 54.1314 0.54099 54.5205C0.895117 54.9096 1.38772 55.167 1.92877 55.2456C5.6678 55.8157 9.60466 56.259 13.6945 56.5567C17.6647 56.8461 21.7796 57 25.9993 57C30.219 57 34.3367 56.8461 38.3055 56.5548Z" fill="white"/>
</svg>
